<mxfile host="app.diagrams.net" modified="2022-03-09T06:51:33.723Z" agent="5.0 (Windows)" etag="TkGAXHW_7wkpCUBkekiR" version="17.0.0" type="github">
  <diagram id="cfzs3SUZAN7jVXVBVKUt" name="Page-1">
    <mxGraphModel dx="1568" dy="805" grid="1" gridSize="10" guides="1" tooltips="1" connect="1" arrows="1" fold="1" page="1" pageScale="1" pageWidth="850" pageHeight="1100" math="0" shadow="0">
      <root>
        <mxCell id="0" />
        <mxCell id="1" parent="0" />
        <mxCell id="zVfmkrB6GH7Qmr5do2gG-1" value="Gets Interacted By" style="edgeStyle=orthogonalEdgeStyle;rounded=0;orthogonalLoop=1;jettySize=auto;html=1;entryX=0.5;entryY=1;entryDx=0;entryDy=0;fontSize=16;strokeWidth=3;" edge="1" parent="1" source="zVfmkrB6GH7Qmr5do2gG-7" target="zVfmkrB6GH7Qmr5do2gG-8">
          <mxGeometry relative="1" as="geometry" />
        </mxCell>
        <mxCell id="zVfmkrB6GH7Qmr5do2gG-2" value="&lt;div&gt;Gets&lt;/div&gt;&lt;div&gt;Interacted By&lt;/div&gt;" style="edgeStyle=orthogonalEdgeStyle;rounded=0;orthogonalLoop=1;jettySize=auto;html=1;exitX=1;exitY=0.25;exitDx=0;exitDy=0;entryX=0.5;entryY=1;entryDx=0;entryDy=0;fontSize=16;strokeWidth=3;" edge="1" parent="1" source="zVfmkrB6GH7Qmr5do2gG-7" target="zVfmkrB6GH7Qmr5do2gG-10">
          <mxGeometry relative="1" as="geometry" />
        </mxCell>
        <mxCell id="zVfmkrB6GH7Qmr5do2gG-3" value="&lt;div&gt;Gets &lt;br&gt;&lt;/div&gt;&lt;div&gt;Interacted &lt;br&gt;&lt;/div&gt;&lt;div&gt;By&lt;/div&gt;" style="edgeStyle=orthogonalEdgeStyle;rounded=0;orthogonalLoop=1;jettySize=auto;html=1;exitX=0;exitY=0.25;exitDx=0;exitDy=0;entryX=0.5;entryY=1;entryDx=0;entryDy=0;fontSize=16;strokeWidth=3;" edge="1" parent="1" source="zVfmkrB6GH7Qmr5do2gG-7" target="zVfmkrB6GH7Qmr5do2gG-11">
          <mxGeometry relative="1" as="geometry" />
        </mxCell>
        <mxCell id="zVfmkrB6GH7Qmr5do2gG-4" value="&lt;font style=&quot;font-size: 16px&quot;&gt;Gets Stored In&lt;br&gt;&lt;/font&gt;" style="edgeStyle=orthogonalEdgeStyle;rounded=0;orthogonalLoop=1;jettySize=auto;html=1;exitX=0.25;exitY=1;exitDx=0;exitDy=0;entryX=0.5;entryY=0;entryDx=0;entryDy=0;fontSize=24;strokeWidth=3;" edge="1" parent="1" source="zVfmkrB6GH7Qmr5do2gG-7" target="zVfmkrB6GH7Qmr5do2gG-12">
          <mxGeometry relative="1" as="geometry" />
        </mxCell>
        <mxCell id="zVfmkrB6GH7Qmr5do2gG-5" value="&lt;font style=&quot;font-size: 16px&quot;&gt;Gets Stored In&lt;/font&gt;" style="edgeStyle=orthogonalEdgeStyle;rounded=0;orthogonalLoop=1;jettySize=auto;html=1;exitX=0.75;exitY=1;exitDx=0;exitDy=0;entryX=0.5;entryY=0;entryDx=0;entryDy=0;fontSize=24;strokeWidth=3;" edge="1" parent="1" source="zVfmkrB6GH7Qmr5do2gG-7" target="zVfmkrB6GH7Qmr5do2gG-9">
          <mxGeometry relative="1" as="geometry" />
        </mxCell>
        <mxCell id="zVfmkrB6GH7Qmr5do2gG-7" value="&lt;font style=&quot;font-size: 24px&quot;&gt;In Game Items&lt;/font&gt;" style="rounded=1;whiteSpace=wrap;html=1;strokeWidth=3;" vertex="1" parent="1">
          <mxGeometry x="210" y="210" width="190" height="90" as="geometry" />
        </mxCell>
        <mxCell id="zVfmkrB6GH7Qmr5do2gG-8" value="&lt;font style=&quot;font-size: 24px&quot;&gt;Bots&lt;/font&gt;" style="rounded=1;whiteSpace=wrap;html=1;strokeWidth=3;" vertex="1" parent="1">
          <mxGeometry x="210" y="10" width="190" height="90" as="geometry" />
        </mxCell>
        <mxCell id="zVfmkrB6GH7Qmr5do2gG-9" value="&lt;font style=&quot;font-size: 24px&quot;&gt;Inventory&lt;/font&gt;" style="rounded=1;whiteSpace=wrap;html=1;strokeWidth=3;" vertex="1" parent="1">
          <mxGeometry x="400" y="390" width="190" height="90" as="geometry" />
        </mxCell>
        <mxCell id="zVfmkrB6GH7Qmr5do2gG-10" value="&lt;font style=&quot;font-size: 24px&quot;&gt;Player&lt;/font&gt;" style="rounded=1;whiteSpace=wrap;html=1;strokeWidth=3;" vertex="1" parent="1">
          <mxGeometry x="500" y="90" width="190" height="90" as="geometry" />
        </mxCell>
        <mxCell id="zVfmkrB6GH7Qmr5do2gG-11" value="&lt;font style=&quot;font-size: 24px&quot;&gt;Character&lt;/font&gt;" style="rounded=1;whiteSpace=wrap;html=1;strokeWidth=3;" vertex="1" parent="1">
          <mxGeometry x="-80" y="90" width="190" height="90" as="geometry" />
        </mxCell>
        <mxCell id="zVfmkrB6GH7Qmr5do2gG-12" value="&lt;font style=&quot;font-size: 24px&quot;&gt;Vehicle&lt;/font&gt;" style="rounded=1;whiteSpace=wrap;html=1;strokeWidth=3;" vertex="1" parent="1">
          <mxGeometry x="20" y="390" width="190" height="90" as="geometry" />
        </mxCell>
      </root>
    </mxGraphModel>
  </diagram>
</mxfile>
